Coordinates
version=1
nRows=17
nColumns=24
inDegrees=yes

Units are S.I. units (second, meters, Newtons, ...)
Angles are in degrees.

endheader
time	pelvis_tilt	pelvis_list	pelvis_rotation	pelvis_tx	pelvis_ty	pelvis_tz	hip_flexion_r	hip_adduction_r	hip_rotation_r	knee_angle_r	ankle_angle_r	subtalar_angle_r	mtp_angle_r	hip_flexion_l	hip_adduction_l	hip_rotation_l	knee_angle_l	ankle_angle_l	subtalar_angle_l	mtp_angle_l	lumbar_extension	lumbar_bending	lumbar_rotation
      2.07500000	     -6.84220465	     -2.44615505	      2.98843216	      0.17857864	      1.23717252	     -0.85604763	     14.05480259	      9.26125284	      1.78111248	    -11.34699722	      2.06108733	     -7.31235717	      3.72499713	     31.06258105	      3.42604358	     -0.46177582	    -62.58270416	     -6.83558710	      0.46570099	     23.92491964	     -6.23368628	      3.49641511	      4.10879892
      2.08000000	     -6.84393291	     -2.31876536	      2.91648782	      0.18349981	      1.23763845	     -0.85570290	     13.55764624	      9.18615245	      1.90834765	    -11.18806202	      2.33112914	     -7.20067729	      3.68853227	     31.53563106	      3.64375757	     -0.51302115	    -61.74981202	     -6.10818035	      0.91464499	     23.75677812	     -6.26197285	      3.32478608	      4.33573224
      2.08500000	     -6.85349813	     -2.20134340	      2.86319491	      0.18844750	      1.23804008	     -0.85540358	     13.06784769	      9.11387698	      2.02926976	    -11.03072391	      2.59874995	     -7.11156468	      3.63512146	     31.99747382	      3.85874635	     -0.53532122	    -60.85332350	     -5.36521353	      1.34934394	     23.50881424	     -6.27749281	      3.17231372	      4.51940796
      2.09000000	     -6.86246354	     -2.08497242	      2.81589470	      0.19341028	      1.23841407	     -0.85511546	     12.57784007	      9.04175838	      2.17068097	    -10.87738373	      2.86124183	     -7.05828292	      3.57379933	     32.42835696	      4.07337713	     -0.53547244	    -59.87163681	     -4.66410999	      1.70358532	     23.21157195	     -6.29132459	      3.01603508	      4.70048809
      2.09500000	     -6.86187674	     -1.97536991	      2.77790152	      0.19839302	      1.23874508	     -0.85484252	     12.07603535	      8.97530835	      2.32164358	    -10.72564022	      3.12299959	     -7.03520433	      3.50281095	     32.82190989	      4.28033661	     -0.51215506	    -58.81909031	     -3.99051293	      1.97658761	     22.87008338	     -6.31000559	      2.86813632	      4.86837701
      2.10000000	     -6.86942051	     -1.86594307	      2.74667585	      0.20341056	      1.23903551	     -0.85460603	     11.57918305	      8.90379382	      2.47647753	    -10.57045006	      3.38614431	     -7.04394982	      3.42866083	     33.19455238	      4.48973172	     -0.46929283	    -57.69143510	     -3.36671076	      2.13990385	     22.50403642	     -6.31565566	      2.72500636	      5.03546297
      2.10500000	     -6.88694030	     -1.77046088	      2.73838700	      0.20842442	      1.23926383	     -0.85441193	     11.09147156	      8.83997731	      2.64675749	    -10.41159991	      3.60178810	     -7.06121689	      3.32103135	     33.55837830	      4.70296913	     -0.36339750	    -56.51022297	     -2.74098527	      2.29450037	     21.90624642	     -6.31610080	      2.60258852	      5.13201267
      2.11000000	     -6.88662552	     -1.66934383	      2.70962274	      0.21344002	      1.23946265	     -0.85421408	     10.60152599	      8.77596570	      2.83893472	    -10.28809758	      3.88839774	     -7.11768463	      3.26033797	     33.86613395	      4.90460990	     -0.25942294	    -55.23722742	     -2.21376491	      2.21055149	     21.62731481	     -6.32635783	      2.46997617	      5.31729123
      2.11500000	     -6.92198540	     -1.58064447	      2.69906279	      0.21848428	      1.23957091	     -0.85404320	     10.15962786	      8.71981712	      3.01256631	    -10.18194653	      4.15680125	     -7.20037124	      3.20185723	     34.19224866	      5.09633537	     -0.12516612	    -53.91067396	     -1.66374168	      2.05359190	     21.37190459	     -6.30389095	      2.35784699	      5.39116182
      2.12000000	     -6.87122514	     -1.48269440	      2.69016073	      0.22350373	      1.23976029	     -0.85390909	      9.58752545	      8.65154890	      3.23072775	    -10.01176953	      4.38735826	     -7.26232751	      3.09434002	     34.37343751	      5.30155286	      0.05925630	    -52.48989042	     -1.22294246	      1.87224475	     20.82989509	     -6.37240791	      2.23644727	      5.56096996
      2.12500000	     -6.88397460	     -1.40111648	      2.69501172	      0.22860825	      1.23981986	     -0.85380184	      9.09042996	      8.59518139	      3.39629001	     -9.85709705	      4.61793271	     -7.35423293	      2.97397309	     34.60350249	      5.48516666	      0.25269383	    -51.03098696	     -0.76924295	      1.61520046	     20.21366646	     -6.35673093	      2.13184113	      5.64863880
      2.13000000	     -6.89572764	     -1.33220013	      2.68493741	      0.23361918	      1.23982154	     -0.85371162	      8.64134804	      8.55614944	      3.61262171	     -9.78519194	      4.89150396	     -7.46455369	      2.88914684	     34.80743505	      5.65347895	      0.50034627	    -49.50657598	     -0.30923102	      1.30394236	     19.80098286	     -6.36635679	      2.05022671	      5.74060556
      2.13500000	     -6.90579964	     -1.26136759	      2.69311448	      0.23871379	      1.23980513	     -0.85365948	      8.14929714	      8.50699971	      3.78506757	     -9.64276692	      5.11910958	     -7.56997466	      2.77955579	     34.96433206	      5.82241669	      0.76587644	    -47.90731877	      0.07109772	      0.90603605	     19.26393858	     -6.35690267	      1.96375365	      5.82069290
      2.14000000	     -6.92835576	     -1.19986240	      2.69187337	      0.24377489	      1.23972630	     -0.85362182	      7.69574266	      8.46837362	      3.97173962	     -9.54199278	      5.36518751	     -7.68174628	      2.67354593	     35.10176694	      5.97299849	      1.06552064	    -46.24600015	      0.45131297	      0.48783368	     18.76200487	     -6.34602638	      1.89393380	      5.89102073
      2.14500000	     -6.95898846	     -1.14876427	      2.69459488	      0.24882676	      1.23960100	     -0.85361982	      7.25929892	      8.43801934	      4.14724411	     -9.45370597	      5.60037067	     -7.79216636	      2.56556900	     35.20902696	      6.11308138	      1.40801587	    -44.51848562	      0.80479211	      0.02718877	     18.22956962	     -6.32888176	      1.83794497	      5.93289243
      2.15000000	     -6.99575733	     -1.11319036	      2.69998553	      0.25385016	      1.23940828	     -0.85365073	      6.84714543	      8.42167500	      4.29899655	     -9.39222512	      5.84369337	     -7.89074546	      2.46047637	     35.28928872	      6.23481474	      1.79560757	    -42.73753467	      1.15188574	     -0.45800897	     17.66301896	     -6.31490376	      1.80526039	      5.94521367
      2.15500000	     -7.02731380	     -1.06854501	      2.68549287	      0.25888813	      1.23920299	     -0.85365571	      6.42279425	      8.39841405	      4.47742656	     -9.31864647	      6.09211069	     -7.98799105	      2.37583972	     35.30497550	      6.33295327	      2.17696505	    -40.86706558	      1.45335992	     -0.91726017	     17.20120771	     -6.30170890	      1.75802106	      6.00211210
